<svg version="1.1" id="exp_iot_svg" xmlns="http://www.w3.org/2000/svg" xmlns:xlink="http://www.w3.org/1999/xlink" x="0px" y="0px"
	 viewBox="0 0 146 146" style="enable-background:new 0 0 146 146;" xml:space="preserve">
<style type="text/css">
	.exp_iot_svg_st0{fill:none;stroke:#B6BDBF;stroke-linecap:round;stroke-linejoin:round;stroke-miterlimit:10;}
	.exp_iot_svg_st1{fill:none;}
	.exp_iot_svg_st2{fill:none;stroke:#00aadd;stroke-miterlimit:10;}
	.exp_iot_svg_st3{fill:none;stroke:#00aadd;stroke-linecap:round;stroke-linejoin:round;stroke-miterlimit:10;}
	.exp_iot_svg_st4{fill:#00aadd;}
	svg:hover .exp_iot_svg_st2,
	svg:hover .exp_iot_svg_st3 {stroke:#ff8800;	}
	svg:hover .exp_iot_svg_st4 {fill:#ff8800;	}
</style>
<g>
	<g>
		<path class="exp_iot_svg_st0" d="M65,21.1c2.6-0.4,5.3-0.6,8-0.6c29,0,52.5,23.5,52.5,52.5c0,4.3-0.5,8.4-1.5,12.4"/>
		<path class="exp_iot_svg_st0" d="M88.6,123.1c-4.9,1.5-10.2,2.4-15.6,2.4c-29,0-52.5-23.5-52.5-52.5c0-12.3,4.2-23.6,11.3-32.6"/>
	</g>
	<circle class="exp_iot_svg_st1" cx="119.1" cy="95.3" r="1"/>
	<g>
		<g>
			<polyline class="exp_iot_svg_st2" points="83.5,58.1 73.6,58.1 63.5,47.1 			"/>
		</g>
		<g>
			<circle class="exp_iot_svg_st2" cx="51.7" cy="36.3" r="16"/>
		</g>
		<polyline class="exp_iot_svg_st2" points="63,71.1 72.4,71.1 87.2,85.7 		"/>
		<g>
			<circle class="exp_iot_svg_st2" cx="102.3" cy="100.8" r="21.7"/>
		</g>
		<circle class="exp_iot_svg_st2" cx="87.6" cy="58.2" r="4.5"/>
		<circle class="exp_iot_svg_st2" cx="58.4" cy="70.9" r="4.5"/>
		<g>
			<line class="exp_iot_svg_st3" x1="85.5" y1="95.3" x2="88.6" y2="107.4"/>
			<line class="exp_iot_svg_st3" x1="91.6" y1="95.3" x2="94.6" y2="107.4"/>
			<line class="exp_iot_svg_st3" x1="91.6" y1="95.3" x2="88.6" y2="107.4"/>
			<line class="exp_iot_svg_st3" x1="97.7" y1="95.3" x2="94.6" y2="107.4"/>
			<line class="exp_iot_svg_st3" x1="100.5" y1="99.1" x2="100.5" y2="107.1"/>
			<line class="exp_iot_svg_st3" x1="119.5" y1="99.1" x2="119.5" y2="107.1"/>
			<line class="exp_iot_svg_st3" x1="110.5" y1="95.1" x2="110.5" y2="107.1"/>
			<line class="exp_iot_svg_st3" x1="110.5" y1="95.1" x2="115.5" y2="95.1"/>
			<line class="exp_iot_svg_st3" x1="110.5" y1="101.1" x2="115.5" y2="101.1"/>
			<line class="exp_iot_svg_st3" x1="104.5" y1="101.1" x2="106.5" y2="101.1"/>
		</g>
		<polyline class="exp_iot_svg_st3" points="44,30.1 59,42.5 51.5,48.6 51.5,23.9 59,29.9 44,42.3 		"/>
		<circle class="exp_iot_svg_st4" cx="100.8" cy="95.3" r="1.3"/>
		<circle class="exp_iot_svg_st4" cx="119.1" cy="95.3" r="1.3"/>
	</g>
	<g>
		<polyline class="exp_iot_svg_st0" points="45.5,58.1 37.5,58.1 37.5,64.1 45.5,64.1 45.5,70.1 37.5,70.1 37.5,76.1 45.5,76.1 45.5,82.1
			37.5,82.1 37.5,88.1 45.5,88.1 45.5,94.1 37.5,94.1 37.5,100.1 45.5,100.1 45.5,109.1 51.5,108.6 51.5,100.1 57.5,100.1
			57.5,109.1 63.5,109.1 63.5,100.1 69.5,100.1 69.5,109.1 75.5,109.1 75.5,100.1 		"/>
		<polyline class="exp_iot_svg_st0" points="99.5,76.1 107.5,76.1 107.5,70.1 99.5,70.1 99.5,64.1 107.5,64.1 107.5,58.1 99.5,58.1 99.5,52.1
			107.5,52.1 107.5,46.1 99.5,46.1 99.5,37.1 93.5,37.1 93.5,46.1 87.5,46.1 87.5,37.1 81.5,37.1 81.5,46.1 75.5,46.1 75.5,37.1
			71.5,37.1 		"/>
		<path class="exp_iot_svg_st0" d="M100,46"/>
		<path class="exp_iot_svg_st0" d="M46,100"/>
	</g>
	<line class="exp_iot_svg_st0" x1="45.5" y1="58.1" x2="45.5" y2="54.1"/>
	<line class="exp_iot_svg_st0" x1="75.5" y1="100.1" x2="78.5" y2="100.1"/>
	<line class="exp_iot_svg_st0" x1="75.5" y1="46.1" x2="99.5" y2="46.1"/>
	<line class="exp_iot_svg_st0" x1="99.5" y1="76.1" x2="99.5" y2="46.1"/>
	<line class="exp_iot_svg_st0" x1="45.5" y1="58.1" x2="45.5" y2="100.1"/>
	<line class="exp_iot_svg_st0" x1="75.5" y1="100.1" x2="45.5" y2="100.1"/>
</g>
</svg>
